<?xml version="1.0" encoding="utf-8"?>
<!-- Generator: Adobe Illustrator 19.2.0, SVG Export Plug-In . SVG Version: 6.00 Build 0)  -->
<svg version="1.1" id="Layer_1" xmlns="http://www.w3.org/2000/svg" xmlns:xlink="http://www.w3.org/1999/xlink" x="0px" y="0px"
	 viewBox="0 0 24 24" style="enable-background:new 0 0 24 24;" xml:space="preserve">
<style type="text/css">
	.st0{fill:#212120;}
</style>
<g>
	<title>Layer 1</title>
	<path id="svg_3" class="st0" d="M8.3,15.7H2.5c-0.4,0-0.7-0.3-0.7-0.7V9.1c0-0.4,0.3-0.7,0.7-0.7h5.9c0.4,0,0.7,0.3,0.7,0.7V15
		C9.1,15.4,8.7,15.7,8.3,15.7z M3.2,14.2h4.4V9.8H3.2V14.2z"/>
	<path id="svg_5" class="st0" d="M21.6,20.9h-5.9c-0.4,0-0.7-0.3-0.7-0.7v-5.9c0-0.4,0.3-0.7,0.7-0.7h5.9c0.4,0,0.7,0.3,0.7,0.7v5.9
		C22.3,20.5,22,20.9,21.6,20.9z M16.4,19.4h4.4V15h-4.4V19.4z"/>
	<path id="svg_7" class="st0" d="M21.6,9.1h-5.9c-0.4,0-0.7-0.3-0.7-0.7V2.5c0-0.4,0.3-0.7,0.7-0.7h5.9c0.4,0,0.7,0.3,0.7,0.7v5.9
		C22.3,8.8,22,9.1,21.6,9.1z M16.4,7.6h4.4V3.2h-4.4V7.6z"/>
	<path id="svg_9" class="st0" d="M12,23.8c-0.4,0-0.7-0.3-0.7-0.7V1c0-0.4,0.3-0.7,0.7-0.7s0.7,0.3,0.7,0.7v22.1
		C12.8,23.5,12.4,23.8,12,23.8z"/>
	<path id="svg_11" class="st0" d="M12,12.8H8.3c-0.4,0-0.7-0.3-0.7-0.7s0.3-0.7,0.7-0.7H12c0.4,0,0.7,0.3,0.7,0.7S12.4,12.8,12,12.8
		z"/>
	<path id="svg_13" class="st0" d="M15.7,6.2H12c-0.4,0-0.7-0.3-0.7-0.7c0-0.4,0.3-0.7,0.7-0.7h3.7c0.4,0,0.7,0.3,0.7,0.7
		C16.4,5.8,16.1,6.2,15.7,6.2z"/>
	<path id="svg_15" class="st0" d="M15.7,17.9H12c-0.4,0-0.7-0.3-0.7-0.7c0-0.4,0.3-0.7,0.7-0.7h3.7c0.4,0,0.7,0.3,0.7,0.7
		S16.1,17.9,15.7,17.9z"/>
</g>
</svg>
