<?xml version="1.0" encoding="utf-8"?>
<!-- Generator: Adobe Illustrator 19.2.0, SVG Export Plug-In . SVG Version: 6.00 Build 0)  -->
<svg version="1.1" id="Layer_1" xmlns="http://www.w3.org/2000/svg" xmlns:xlink="http://www.w3.org/1999/xlink" x="0px" y="0px"
	 viewBox="0 0 24 24" style="enable-background:new 0 0 24 24;" xml:space="preserve">
<style type="text/css">
	.st0{fill:#212120;}
</style>
<g>
	<path id="Shape" class="st0" d="M22.9,3.2H8.1C7.5,3.2,7,2.4,7,1.6C7,0.7,7.5,0,8.1,0h14.8C23.5,0,24,0.7,24,1.6
		C24,2.4,23.5,3.2,22.9,3.2L22.9,3.2z"/>
	<g>
		<path id="Shape-2" class="st0" d="M22.9,16.7H8.1C7.5,16.7,7,16,7,15.1c0-0.8,0.5-1.6,1.1-1.6h14.8c0.6,0,1.1,0.7,1.1,1.6
			C24,15.9,23.5,16.7,22.9,16.7L22.9,16.7z"/>
		<path id="Shape-3" class="st0" d="M14,22.8V7.2C14,6.6,14.7,6,15.5,6C16.3,6,17,6.5,17,7.2v15.6c0,0.6-0.7,1.2-1.5,1.2
			C14.7,24,14,23.5,14,22.8L14,22.8z"/>
	</g>
	<path id="Circle" class="st0" d="M0,2.1C0,0.9,0.9,0,2,0s2,0.9,2,2.1S3.1,4.2,2,4.2S0,3.3,0,2.1z"/>
	<path id="Circle_1_" class="st0" d="M0,12c0-1.2,0.9-2.1,2-2.1s2,0.9,2,2.1s-0.9,2.1-2,2.1S0,13.2,0,12z"/>
	<path id="Circle_2_" class="st0" d="M0,21.9c0-1.2,0.9-2.1,2-2.1s2,0.9,2,2.1S3.1,24,2,24S0,23.1,0,21.9z"/>
</g>
</svg>
