<?xml version="1.0" encoding="utf-8"?>
<!-- Generator: Adobe Illustrator 19.2.0, SVG Export Plug-In . SVG Version: 6.00 Build 0)  -->
<svg version="1.1" id="Layer_1" xmlns="http://www.w3.org/2000/svg" xmlns:xlink="http://www.w3.org/1999/xlink" x="0px" y="0px"
	 viewBox="0 0 24 24" style="enable-background:new 0 0 24 24;" xml:space="preserve">
<style type="text/css">
	.st0{fill:#212120;}
</style>
<g>
	<path class="st0" d="M23,23H8.1C7.5,23,7,22.4,7,21.5C7,20.7,7.5,20,8.1,20H23c0.6,0,1.1,0.7,1.1,1.5C24,22.4,23.5,23,23,23z"/>
	<path class="st0" d="M23,13.5H8.1C7.5,13.5,7,12.8,7,12s0.5-1.5,1.1-1.5H23c0.6,0,1.1,0.7,1.1,1.5S23.5,13.5,23,13.5z"/>
	<path class="st0" d="M23,4H8.1C7.4,4,6.9,3.3,6.9,2.5S7.4,1,8.1,1H23c0.5,0,1,0.7,1,1.5S23.5,4,23,4z"/>
	<circle class="st0" cx="1.9" cy="2.6" r="2"/>
	<circle class="st0" cx="1.9" cy="12" r="2"/>
	<circle class="st0" cx="1.9" cy="21.4" r="2"/>
</g>
</svg>
