<?xml version="1.0" encoding="utf-8"?>
<!-- Generator: Adobe Illustrator 25.0.1, SVG Export Plug-In . SVG Version: 6.00 Build 0)  -->
<svg version="1.1" id="Layer_1" xmlns="http://www.w3.org/2000/svg" xmlns:xlink="http://www.w3.org/1999/xlink" x="0px" y="0px"
	 viewBox="0 0 24 24" style="enable-background:new 0 0 24 24;" xml:space="preserve">
<style type="text/css">
	.st0{fill:#005AE0;}
</style>
<path class="st0" d="M15.6,3.4H8.4c-1,0-1.8,0.8-1.8,1.8v15c0,0.2,0.2,0.4,0.4,0.4c0.1,0,0.2,0,0.3-0.1l4.7-4.7l4.7,4.7
	c0.1,0.1,0.4,0.1,0.5,0c0.1-0.1,0.1-0.2,0.1-0.3v-15C17.4,4.2,16.6,3.4,15.6,3.4z M14.1,8.9h-1.4v1.4c0,0.4-0.3,0.6-0.6,0.6
	s-0.6-0.3-0.6-0.6V8.9H9.9c-0.4,0-0.6-0.3-0.6-0.6c0-0.4,0.3-0.6,0.6-0.6h1.4V6.2c0-0.4,0.3-0.6,0.6-0.6s0.6,0.3,0.6,0.6v1.4h1.4
	c0.4,0,0.6,0.3,0.6,0.6C14.7,8.6,14.4,8.9,14.1,8.9z"/>
</svg>
